<?xml version="1.0" encoding="utf-8"?>
<!-- Generator: Adobe Illustrator 22.0.0, SVG Export Plug-In . SVG Version: 6.00 Build 0)  -->
<svg version="1.1"
	 id="svg4157" inkscape:version="0.91 r13725" sodipodi:docname="home.svg" xmlns:cc="http://creativecommons.org/ns#" xmlns:dc="http://purl.org/dc/elements/1.1/" xmlns:inkscape="http://www.inkscape.org/namespaces/inkscape" xmlns:rdf="http://www.w3.org/1999/02/22-rdf-syntax-ns#" xmlns:sodipodi="http://sodipodi.sourceforge.net/DTD/sodipodi-0.dtd" xmlns:svg="http://www.w3.org/2000/svg"
	 xmlns="http://www.w3.org/2000/svg" xmlns:xlink="http://www.w3.org/1999/xlink" x="0px" y="0px" viewBox="0 0 595.3 841.9"
	 style="enable-background:new 0 0 595.3 841.9;" xml:space="preserve">
<style type="text/css">
	.st0{fill:#018983;}
	.st1{fill:#FFFFFF;}
</style>
<sodipodi:namedview  bordercolor="#666666" borderopacity="1.0" id="base" inkscape:current-layer="g4171" inkscape:cx="-60.714286" inkscape:cy="520" inkscape:document-units="px" inkscape:pageopacity="0.0" inkscape:pageshadow="2" inkscape:window-height="657" inkscape:window-maximized="1" inkscape:window-width="1280" inkscape:window-x="-8" inkscape:window-y="1072" inkscape:zoom="0.35" pagecolor="#ffffff" showgrid="false">
	</sodipodi:namedview>
<g id="layer1" inkscape:groupmode="layer" inkscape:label="Layer 1">
	<g id="g4171" transform="translate(-164.28571,10.933633)">
		<circle id="circle3" class="st0" cx="462.8" cy="289.2" r="296"/>
		<path class="st1" d="M588.3,296l3.6,63.2c0.5,9.2-4.9,17.7-16.4,25.6s-27.1,14.1-47,18.7s-41.4,6.9-64.6,6.9s-44.7-2.3-64.6-6.9
			s-35.5-10.8-47-18.7s-16.9-16.4-16.4-25.6l3.6-63.2l114.8,36.2c2.9,0.9,6.1,1.4,9.6,1.4s6.7-0.5,9.6-1.4L588.3,296z M694.2,231.2
			c0,3.1-1.5,5.1-4.4,6.2l-223.9,70.4c-0.5,0.1-1.2,0.2-2,0.2s-1.5-0.1-2-0.2l-130.4-41.2c-5.7,4.5-10.5,12-14.2,22.3
			s-6,22.2-6.8,35.7c8.4,4.8,12.6,12.1,12.6,21.8c0,9.2-3.9,16.3-11.6,21.4l11.6,86.6c0.3,1.9-0.3,3.5-1.6,5
			c-1.2,1.5-2.8,2.2-4.8,2.2h-38.4c-2,0-3.6-0.7-4.8-2.2c-1.3-1.5-1.9-3.1-1.6-5l11.6-86.6c-7.7-5.1-11.6-12.2-11.6-21.4
			c0-9.7,4.3-17.1,13-22.2c1.5-27.6,8-49.6,19.6-66L238,237.4c-2.9-1.1-4.4-3.1-4.4-6.2c0-3.1,1.5-5.1,4.4-6.2l223.9-70.4
			c0.5-0.1,1.2-0.2,2-0.2s1.5,0.1,2,0.2L689.8,225C692.8,226.1,694.2,228.2,694.2,231.2z"/>
	</g>
</g>
</svg>
