<svg data-name="Layer 1" xmlns="http://www.w3.org/2000/svg" viewBox="0 0 35 35" width="35" height="35"><circle cx="17.5" cy="17.5" r="17.5" fill="#018983"/><path d="M27.59 16.15l-2-2V9.37A1.36 1.36 0 0 0 24.27 8h-1.35a1.36 1.36 0 0 0-1.36 1.35v.75l-2.71-2.7a1.89 1.89 0 0 0-1.35-.76 1.89 1.89 0 0 0-1.35.76l-8.74 8.75c-.42.44-.75.76-.75 1.35A1.33 1.33 0 0 0 8 18.85h1.37V27a1.36 1.36 0 0 0 1.36 1.36h4.06v-6.8a1.36 1.36 0 0 1 1.36-1.35h2.7a1.36 1.36 0 0 1 1.36 1.35v6.78h4.06A1.36 1.36 0 0 0 25.63 27v-8.15H27a1.33 1.33 0 0 0 1.36-1.35c0-.59-.33-.91-.75-1.35z" fill="#fff"/></svg>