<?xml version="1.0" encoding="utf-8"?>
<!-- Generator: Adobe Illustrator 19.0.0, SVG Export Plug-In . SVG Version: 6.00 Build 0)  -->
<svg version="1.1" id="Capa_1" xmlns="http://www.w3.org/2000/svg" xmlns:xlink="http://www.w3.org/1999/xlink" x="0px" y="0px"
	 viewBox="-175 53.3 490 490" style="enable-background:new -175 53.3 490 490;" xml:space="preserve">
<style type="text/css">
	.st0{fill:#FFFFFF;}
</style>
<g>
	<path class="st0" d="M251.5,253.9c0-110.6-88.3-200.6-196.8-200.6s-196.8,90-196.8,200.6s88.3,200.6,196.8,200.6
		c33.7,0,65.3-8.7,93.1-23.9l112.7,112.7l21.7-21.7L173.8,413.3C220.9,376.6,251.5,318.9,251.5,253.9z M-111.5,253.9
		c0-93.7,74.6-170,166.2-170c91.7,0,166.2,76.3,166.2,170c0,47.3-19,90.1-49.6,121c-14.3-52.1-61.1-90.4-116.6-90.4
		s-102.3,38.3-116.6,90.4C-92.5,344-111.5,301.2-111.5,253.9z M-35.1,396.7c5.5-46,43.7-81.7,89.8-81.7s84.3,35.7,89.8,81.7
		c-25.9,17.1-56.7,27.2-89.8,27.2C21.6,423.9-9.2,413.8-35.1,396.7z"/>
	<path class="st0" d="M54.7,268.7c41.8,0,75.8-34.7,75.8-77.3c0-42.6-34-77.3-75.8-77.3s-75.8,34.7-75.8,77.3
		C-21.1,234.1,12.9,268.7,54.7,268.7z M54.7,144.8c24.9,0,45.2,20.9,45.2,46.7s-20.3,46.7-45.2,46.7c-24.9,0-45.2-20.9-45.2-46.7
		C9.5,165.7,29.8,144.8,54.7,144.8z"/>
</g>
</svg>
