<?xml version="1.0" encoding="utf-8"?>
<!-- Generator: Adobe Illustrator 19.0.0, SVG Export Plug-In . SVG Version: 6.00 Build 0)  -->
<svg version="1.1" id="Layer_1" xmlns="http://www.w3.org/2000/svg" xmlns:xlink="http://www.w3.org/1999/xlink" x="0px" y="0px"
	 viewBox="-125.5 356.2 375 81.1" style="enable-background:new -125.5 356.2 375 81.1;" xml:space="preserve">
<style type="text/css">
	.st0{fill:#231F20;}
	.st1{fill:#01928C;}
	.st2{fill-opacity:0;stroke:#000000;stroke-opacity:0;}
	.st3{fill:#231F20;fill-opacity:0;}
</style>
<g transform="translate(78.331 797.95)">
	<path class="st0" d="M-74.6-441.5h4.3v13.8h16.9v-13.8h4.3v32.2h-4.3V-424h-16.9v14.7h-4.3C-74.6-409.3-74.6-441.5-74.6-441.5z"/>
</g>
<g transform="translate(94.928 797.95)">
	<path class="st0" d="M-59.8-441.5h5.9l10.1,27l10.2-27h5.9v32.2h-4.1V-436h-0.1l-10.1,26.8h-3.6L-55.6-436h-0.1v26.8h-4.1
		C-59.8-409.3-59.8-441.5-59.8-441.5z"/>
</g>
<g transform="translate(121.74 797.95)">
	<path class="st0" d="M-35.8-441.5h15.1c6,0,9.8,3.3,9.8,8.4c0,3.9-1.7,7.1-5.6,8.2v0.1c3.7,0.7,4.5,3.5,4.8,6.6
		c0.3,3.2,0.1,6.7,1.9,8.9h-4.8c-1.2-1.3-0.5-4.8-1.2-7.9c-0.5-3.2-1.2-5.8-5.4-5.8h-10.5v13.7h-4.3
		C-35.8-409.3-35.8-441.5-35.8-441.5z M-22.6-426.6c4,0,7.4-1,7.4-5.7c0-3.2-1.7-5.5-5.7-5.5h-10.6v11.2H-22.6z"/>
</g>
<g transform="translate(147.59 784.87)">
	<path class="st0" d="M-12.7-403.6c-1,5.1-4.7,7.9-10,7.9c-7.4,0-11-5.1-11.2-12.3c0-7,4.6-12.1,11-12.1c8.2,0,10.8,7.7,10.5,13.3
		h-17.4c-0.1,4.1,2.2,7.7,7.3,7.7c3.2,0,5.4-1.5,6-4.6C-16.5-403.6-12.7-403.6-12.7-403.6z M-16.4-410.1c-0.2-3.6-2.9-6.6-6.7-6.6
		c-4,0-6.4,3-6.7,6.6C-29.8-410.1-16.4-410.1-16.4-410.1z"/>
</g>
<g transform="translate(154.52 780.97)">
	<path class="st0" d="M-6.5-392.3h-4.1l-8.7-23.3h4.3l6.5,19.4h0.1l6.4-19.4h4C2-415.6-6.5-392.3-6.5-392.3z"/>
</g>
<g transform="translate(170.32 784.87)">
	<path class="st0" d="M7.6-403.6c-1,5.1-4.7,7.9-10,7.9c-7.4,0-11-5.1-11.2-12.3c0-7,4.6-12.1,11-12.1c8.2,0,10.8,7.7,10.5,13.3
		H-9.4c-0.1,4.1,2.2,7.7,7.3,7.7c3.2,0,5.4-1.5,6-4.6C3.9-403.6,7.6-403.6,7.6-403.6z M3.9-410.1c-0.2-3.6-2.9-6.6-6.7-6.6
		c-4,0-6.4,3-6.7,6.6C-9.4-410.1,3.9-410.1,3.9-410.1z"/>
</g>
<g transform="translate(172.17 793.27)">
	<path class="st0" d="M9.3-427.9h3.6v3.7H13c1.6-2.9,4.2-4.2,7.6-4.2c6.1,0,8,3.5,8,8.5v15.3h-3.8v-15.8c0-2.8-1.8-4.7-4.7-4.7
		c-4.6,0-6.9,3.1-6.9,7.3v13.2H9.3V-427.9z"/>
</g>
<g transform="translate(194.91 780.97)">
	<path class="st0" d="M29.6-392.3H26v-3.7h-0.1c-1.6,2.9-4.2,4.2-7.6,4.2c-6.1,0-8-3.5-8-8.5v-15.3h3.8v15.8c0,2.8,1.8,4.7,4.7,4.7
		c4.6,0,6.9-3.1,6.9-7.3v-13.2h3.8C29.6-415.6,29.6-392.3,29.6-392.3z"/>
</g>
<g transform="translate(207.89 784.87)">
	<path class="st0" d="M41.2-403.6c-1,5.1-4.7,7.9-10,7.9c-7.4,0-11-5.1-11.2-12.3c0-7,4.6-12.1,11-12.1c8.2,0,10.8,7.7,10.5,13.3
		H24.2c-0.1,4.1,2.2,7.7,7.3,7.7c3.2,0,5.4-1.5,6-4.6C37.5-403.6,41.2-403.6,41.2-403.6z M37.5-410.1c-0.2-3.6-2.9-6.6-6.7-6.6
		c-4,0-6.4,3-6.7,6.6C24.2-410.1,37.5-410.1,37.5-410.1z"/>
</g>
<g transform="translate(87.372 758.09)">
	<path class="st0" d="M-66.5-326.1c-1.9,3-5.6,4.6-9.1,4.6c-8.7,0-10.1-6.2-10.1-8.8c0-5,3.4-7.6,7.5-9.7c-1.8-2.6-3.6-4.3-3.6-7.6
		c0-3.5,2.6-6.6,7.3-6.6c4,0,7.8,2.2,7.8,6.6c0,3.8-2.9,6.6-6,8.3l5.8,7.1c0.6-1.6,0.9-3.3,1-5h3.6c-0.3,3.8-0.8,5.1-2.2,7.9
		l6.3,7.3h-5C-63.1-322.1-66.5-326.1-66.5-326.1z M-76-337.6c-3,1.7-5.6,3.4-5.6,7.3c0,3.2,3,5.5,6.1,5.5c2.9,0,5.3-1.5,6.9-3.8
		C-68.6-328.8-76-337.6-76-337.6z M-70.5-347.5c0-1.8-1.4-3.4-3.7-3.4c-1.8,0-3.7,1.1-3.7,3.4c0,1.9,1.7,3.8,3.1,5.6
		C-72.9-343-70.5-344.7-70.5-347.5"/>
</g>
<g transform="translate(111.4 767.84)">
	<path class="st0" d="M-45-354.3c-0.9-4.5-4.6-6.8-9-6.8c-7.7,0-10.9,6.3-10.9,13c0,7.3,3.2,13.5,10.9,13.5c5.6,0,8.9-4,9.3-9.3h4.3
		c-0.8,8-5.8,12.9-13.9,12.9c-10,0-14.9-7.4-14.9-16.8c0-9.3,5.3-16.9,15.2-16.9c6.7,0,12.3,3.6,13.2,10.5
		C-40.8-354.3-45-354.3-45-354.3z"/>
</g>
<g transform="translate(125.82 755.97)">
	<path class="st0" d="M-32.1-320h-3.6v-3.7h-0.1c-1.6,2.9-4.2,4.2-7.6,4.2c-6.1,0-8-3.5-8-8.5v-15.3h3.8v15.8c0,2.8,1.8,4.7,4.7,4.7
		c4.6,0,6.9-3.1,6.9-7.3v-13.2h3.8C-32.1-343.3-32.1-320-32.1-320z"/>
</g>
<g transform="translate(129.61 759.85)">
	<path class="st0" d="M-28.8-331.2c0.1,3.4,3.1,4.5,6.3,4.5c2.4,0,5.6-0.5,5.6-3.5c0-3-3.8-3.5-7.6-4.3c-3.8-0.9-7.6-2.1-7.6-6.6
		c0-4.7,4.6-6.6,8.7-6.6c5.1,0,9.2,1.6,9.6,7.3h-3.8c-0.3-3-2.9-3.9-5.4-3.9c-2.3,0-5,0.6-5,3c0,2.7,4.1,3.2,7.6,4.1
		c3.8,0.9,7.6,2.1,7.6,6.6c0,5.5-5.2,7.3-9.9,7.3c-5.2,0-9.6-2.1-9.9-7.9C-32.6-331.2-28.8-331.2-28.8-331.2z"/>
</g>
<g transform="translate(142.55 768.27)">
	<path class="st0" d="M-17.2-355.6h4.6v3.4h-4.6v14.5c0,1.8,0.5,2.1,2.9,2.1h1.8v3.4h-2.9c-4,0-5.5-0.8-5.5-5.1v-14.8h-4v-3.4h4v-7
		h3.8C-17.2-362.5-17.2-355.6-17.2-355.6z"/>
</g>
<g transform="translate(151.53 768.56)">
	<path class="st0" d="M-9.2-356.4c7.4,0,11.3,5.4,11.3,12.2c0,6.8-3.9,12.2-11.3,12.2s-11.3-5.4-11.3-12.2
		C-20.5-351-16.5-356.4-9.2-356.4 M-9.2-335.4c4,0,7.3-3.2,7.3-8.8c0-5.7-3.2-8.8-7.3-8.8c-4,0-7.3,3.2-7.3,8.8
		C-16.4-338.5-13.2-335.4-9.2-335.4"/>
</g>
<g transform="translate(159.33 768.27)">
	<path class="st0" d="M-2.2-355.6h3.6v3.4h0.1c1.7-2.6,4.3-4,7.5-4c2.8,0,5.5,1.1,6.4,4c1.6-2.5,4.3-4,7.3-4c4.6,0,7.8,1.9,7.8,6.8
		v17.1h-3.8v-15.3c0-2.9-0.8-5.2-4.5-5.2c-3.7,0-6.1,2.3-6.1,5.9v14.5h-3.8v-15.3c0-3-0.9-5.2-4.4-5.2c-4.6,0-6.2,4.2-6.2,5.9v14.5
		h-3.8C-2.2-332.3-2.2-355.6-2.2-355.6z"/>
</g>
<g transform="translate(180.35 759.85)">
	<path class="st0" d="M16.6-331.2c0.1,3.4,3.1,4.5,6.3,4.5c2.4,0,5.6-0.5,5.6-3.5c0-3-3.8-3.5-7.6-4.3c-3.8-0.9-7.6-2.1-7.6-6.6
		c0-4.7,4.6-6.6,8.7-6.6c5.1,0,9.2,1.6,9.6,7.3h-3.8c-0.3-3-2.9-3.9-5.4-3.9c-2.3,0-5,0.6-5,3c0,2.7,4.1,3.2,7.6,4.1
		c3.8,0.9,7.6,2.1,7.6,6.6c0,5.5-5.2,7.3-9.9,7.3c-5.2,0-9.6-2.1-9.9-7.9C12.8-331.2,16.6-331.2,16.6-331.2z"/>
</g>
<g>
	<g>
		<g>
			<path id="a3XsoFSmM6" class="st1" d="M-120.2,436.8v-80.1h-4.8v80.1H-120.2z"/>
		</g>
		<g>
			<g>
				<path id="a3XsoFSmM6_1_" class="st2" d="M-120.2,436.8v-80.1h-4.8v80.1H-120.2z"/>
			</g>
		</g>
	</g>
	<g>
		<g>
			<path id="bdIGvNdmI" class="st0" d="M-37.6,400.5c-0.6-0.1-1.4-0.2-2-0.3c0.6-1.2,0.9-1.9,0.9-1.9c0-0.2,0.7-1.3,0.9-2.2
				c0.2-0.7,0.4-2.1,0.4-2.3c0-2.3-0.8-4.4-2.2-6c-1.4-1.5-3.3-2.5-5.5-2.5c-0.4,0-1,0-2.2,0.3c-1.2,0.3-1.8,0.5-2.9,0.8
				c-1.8,0.6-2.6,0.9-5.3,2.1c-0.3,0.1-0.4,0.4-0.4,0.5c-0.1,0.2,0,0.3,0,0.3c0,0.7,0,3.9-0.1,9.9h-1.7c0-6.5,0-10,0-10.8
				c0,0,0-0.3,0.1-0.7c0.1-0.4,0.4-0.7,0.8-1c0.4-0.2,0.7-0.4,1.1-0.6c-0.4-0.3-0.7-0.7-0.7-1.2c0-0.8,0.7-1.5,1.5-1.5
				c0.8,0,1.5,0.7,1.5,1.5c0,0.1,0,0.1,0,0.2c0,0,0.1,0,0.1,0c0.3-0.1,0.7-0.2,1-0.3c-0.5-0.2-0.8-0.7-0.8-1.3
				c0-0.8,0.7-1.5,1.5-1.5c0.8,0,1.5,0.7,1.5,1.5c0,0.2-0.1,0.5-0.2,0.7c0.7-0.2,1.2-0.3,1.2-0.3c0.1,0,0.1,0,0.2-0.1
				c-0.4-0.3-0.7-0.7-0.7-1.2c0-0.8,0.7-1.5,1.5-1.5s1.5,0.7,1.5,1.5c0,0.3-0.1,0.5-0.2,0.8c0,0,0,0,0,0c0.5-0.1,1.1-0.1,1.6-0.1
				c-0.2-0.2-0.3-0.5-0.3-0.9c0-0.8,0.7-1.5,1.5-1.5s1.5,0.7,1.5,1.5c0,0.5-0.2,0.9-0.5,1.1c0.6,0.1,1.1,0.3,1.6,0.6
				c0-0.1-0.1-0.3-0.1-0.4c0-0.8,0.7-1.5,1.5-1.5c0.8,0,1.5,0.7,1.5,1.5c0,0.7-0.5,1.3-1.2,1.4c0.5,0.4,0.9,0.7,1.2,1.1c0,0,0,0,0,0
				c0-0.8,0.7-1.5,1.5-1.5c0.8,0,1.5,0.7,1.5,1.5s-0.7,1.5-1.5,1.5c-0.2,0-0.3,0-0.4-0.1c0.3,0.4,0.5,0.9,0.8,1.3
				c0.3-0.4,0.7-0.6,1.2-0.6c0.8,0,1.5,0.7,1.5,1.5c0,0.8-0.7,1.5-1.5,1.5c-0.2,0-0.3,0-0.5-0.1c0.1,0.4,0.2,0.8,0.2,1.2
				c0.2-0.1,0.4-0.1,0.6-0.1c0.8,0,1.5,0.7,1.5,1.5s-0.7,1.5-1.5,1.5c-0.2,0-0.4-0.1-0.6-0.2c0,0.2-0.1,0.3-0.1,0.5
				c0,0.2-0.1,0.3-0.1,0.5c0.7,0.1,1.3,0.7,1.3,1.5c0,0.8-0.7,1.5-1.5,1.5c-0.3,0-0.6-0.1-0.8-0.2C-37,399.2-37.3,399.8-37.6,400.5"
				/>
		</g>
		<g>
			<g>
				<path id="bdIGvNdmI_1_" class="st3" d="M-37.6,400.5c-0.6-0.1-1.4-0.2-2-0.3c0.6-1.2,0.9-1.9,0.9-1.9c0-0.2,0.7-1.3,0.9-2.2
					c0.2-0.7,0.4-2.1,0.4-2.3c0-2.3-0.8-4.4-2.2-6c-1.4-1.5-3.3-2.5-5.5-2.5c-0.4,0-1,0-2.2,0.3c-1.2,0.3-1.8,0.5-2.9,0.8
					c-1.8,0.6-2.6,0.9-5.3,2.1c-0.3,0.1-0.4,0.4-0.4,0.5c-0.1,0.2,0,0.3,0,0.3c0,0.7,0,3.9-0.1,9.9h-1.7c0-6.5,0-10,0-10.8
					c0,0,0-0.3,0.1-0.7c0.1-0.4,0.4-0.7,0.8-1c0.4-0.2,0.7-0.4,1.1-0.6c-0.4-0.3-0.7-0.7-0.7-1.2c0-0.8,0.7-1.5,1.5-1.5
					c0.8,0,1.5,0.7,1.5,1.5c0,0.1,0,0.1,0,0.2c0,0,0.1,0,0.1,0c0.3-0.1,0.7-0.2,1-0.3c-0.5-0.2-0.8-0.7-0.8-1.3
					c0-0.8,0.7-1.5,1.5-1.5c0.8,0,1.5,0.7,1.5,1.5c0,0.2-0.1,0.5-0.2,0.7c0.7-0.2,1.2-0.3,1.2-0.3c0.1,0,0.1,0,0.2-0.1
					c-0.4-0.3-0.7-0.7-0.7-1.2c0-0.8,0.7-1.5,1.5-1.5s1.5,0.7,1.5,1.5c0,0.3-0.1,0.5-0.2,0.8c0,0,0,0,0,0c0.5-0.1,1.1-0.1,1.6-0.1
					c-0.2-0.2-0.3-0.5-0.3-0.9c0-0.8,0.7-1.5,1.5-1.5s1.5,0.7,1.5,1.5c0,0.5-0.2,0.9-0.5,1.1c0.6,0.1,1.1,0.3,1.6,0.6
					c0-0.1-0.1-0.3-0.1-0.4c0-0.8,0.7-1.5,1.5-1.5c0.8,0,1.5,0.7,1.5,1.5c0,0.7-0.5,1.3-1.2,1.4c0.5,0.4,0.9,0.7,1.2,1.1
					c0,0,0,0,0,0c0-0.8,0.7-1.5,1.5-1.5c0.8,0,1.5,0.7,1.5,1.5s-0.7,1.5-1.5,1.5c-0.2,0-0.3,0-0.4-0.1c0.3,0.4,0.5,0.9,0.8,1.3
					c0.3-0.4,0.7-0.6,1.2-0.6c0.8,0,1.5,0.7,1.5,1.5c0,0.8-0.7,1.5-1.5,1.5c-0.2,0-0.3,0-0.5-0.1c0.1,0.4,0.2,0.8,0.2,1.2
					c0.2-0.1,0.4-0.1,0.6-0.1c0.8,0,1.5,0.7,1.5,1.5s-0.7,1.5-1.5,1.5c-0.2,0-0.4-0.1-0.6-0.2c0,0.2-0.1,0.3-0.1,0.5
					c0,0.2-0.1,0.3-0.1,0.5c0.7,0.1,1.3,0.7,1.3,1.5c0,0.8-0.7,1.5-1.5,1.5c-0.3,0-0.6-0.1-0.8-0.2C-37,399.2-37.3,399.8-37.6,400.5
					"/>
			</g>
		</g>
	</g>
	<g>
		<g>
			<path id="b9V0v77iXY" class="st0" d="M-60.9,397.9c0-0.8,0.6-1.4,1.4-1.4c0,0,0,0,0,0h0c0.8,0,1.4,0.6,1.4,1.4
				c0,0.8-0.6,1.4-1.4,1.4c0,0,0,0,0,0C-60.4,398.9-60.9,398.4-60.9,397.9z"/>
		</g>
		<g>
			<g>
				<path id="b9V0v77iXY_1_" class="st3" d="M-60.9,397.9c0-0.8,0.6-1.4,1.4-1.4c0,0,0,0,0,0h0c0.8,0,1.4,0.6,1.4,1.4
					c0,0.8-0.6,1.4-1.4,1.4c0,0,0,0,0,0C-60.4,398.9-60.9,398.4-60.9,397.9z"/>
			</g>
		</g>
	</g>
	<g>
		<g>
			<path id="c48xImVIRJ" class="st0" d="M-58.1,394.5c0-0.7-0.6-1.3-1.3-1.3h0c0,0,0,0,0,0c-0.8,0-1.4,0.6-1.4,1.3
				c0,0.8,0.6,1.4,1.4,1.4c0,0,0,0,0,0C-58.5,395.5-58.1,395-58.1,394.5z"/>
		</g>
		<g>
			<g>
				<path id="c48xImVIRJ_1_" class="st3" d="M-58.1,394.5c0-0.7-0.6-1.3-1.3-1.3h0c0,0,0,0,0,0c-0.8,0-1.4,0.6-1.4,1.3
					c0,0.8,0.6,1.4,1.4,1.4c0,0,0,0,0,0C-58.5,395.5-58.1,395-58.1,394.5z"/>
			</g>
		</g>
	</g>
	<g>
		<g>
			<path id="bsowAndjG" class="st0" d="M-60.7,391.3c0-0.7,0.6-1.3,1.3-1.3h0c0.7,0,1.3,0.6,1.3,1.3c0,0.7-0.6,1.3-1.3,1.3h0
				C-60.3,392.2-60.7,391.7-60.7,391.3z"/>
		</g>
		<g>
			<g>
				<path id="bsowAndjG_1_" class="st3" d="M-60.7,391.3c0-0.7,0.6-1.3,1.3-1.3h0c0.7,0,1.3,0.6,1.3,1.3c0,0.7-0.6,1.3-1.3,1.3h0
					C-60.3,392.2-60.7,391.7-60.7,391.3z"/>
			</g>
		</g>
	</g>
	<g>
		<g>
			<path id="aUq2pbWke" class="st0" d="M-58.2,385.3c0-0.7-0.5-1.2-1.2-1.2l0,0c-0.7,0-1.2,0.6-1.2,1.2c0,0.7,0.5,1.2,1.2,1.2l0,0
				C-58.6,386.1-58.2,385.7-58.2,385.3z"/>
		</g>
		<g>
			<g>
				<path id="aUq2pbWke_1_" class="st3" d="M-58.2,385.3c0-0.7-0.5-1.2-1.2-1.2l0,0c-0.7,0-1.2,0.6-1.2,1.2c0,0.7,0.5,1.2,1.2,1.2
					l0,0C-58.6,386.1-58.2,385.7-58.2,385.3z"/>
			</g>
		</g>
	</g>
	<g>
		<g>
			<path id="bJ7hGxhD4" class="st0" d="M-60.7,388.2c0-0.7,0.5-1.2,1.2-1.2h0c0.7,0,1.2,0.6,1.2,1.2c0,0.7-0.6,1.2-1.2,1.2h0
				C-60.3,389.1-60.7,388.7-60.7,388.2z"/>
		</g>
		<g>
			<g>
				<path id="bJ7hGxhD4_1_" class="st3" d="M-60.7,388.2c0-0.7,0.5-1.2,1.2-1.2h0c0.7,0,1.2,0.6,1.2,1.2c0,0.7-0.6,1.2-1.2,1.2h0
					C-60.3,389.1-60.7,388.7-60.7,388.2z"/>
			</g>
		</g>
	</g>
	<g>
		<g>
			<path id="c4P5Vu2zZy" class="st0" d="M-55.4,369.7c-0.2,0-0.3,0.1-0.3,0.2c-0.3,1.1-0.8,2.1-3,2.3c0.1-0.9,0.3-1.6,0.8-2.1
				c0.4-0.4,0.9-0.7,1.8-0.9c0,0,0.1,0,0.2-0.1c0,0,0.1-0.1,0.1-0.2c0-0.1,0-0.2-0.1-0.2c-0.1-0.1-0.1-0.1-0.2-0.1
				c-0.2,0-1.3,0-3.2,0h-0.3c-1.7,0-2.7,0-2.9,0c0,0-0.1,0-0.2,0.1c0,0-0.1,0.1-0.1,0.2s0,0.2,0.1,0.2c0.1,0.1,0.2,0.1,0.2,0.1
				c0.8,0.2,1.4,0.5,1.8,0.9c0.4,0.5,0.7,1.2,0.8,2.1c-2.1-0.2-2.7-1.2-3-2.3c0-0.1-0.1-0.2-0.3-0.2c-0.2,0-0.2,0.1-0.3,0.2
				c0,0,0,0,0,0c0,3.6,0,5.5,0,5.9c0,0.1,0.1,0.3,0.3,0.2c0.2,0,0.3-0.1,0.3-0.2l0,0c0.5-1.2,1.6-2,2.9-2.2c-0.1,1-0.3,1.7-0.8,2.2
				c-0.4,0.4-0.9,0.7-1.8,0.9h0c0,0-0.1,0-0.2,0.1c0,0-0.1,0.1-0.1,0.2c0,0.1,0,0.1,0.1,0.2c0.1,0.1,0.1,0.1,0.2,0.1
				c0.2,0,1.2,0,2.9,0h0.3c1.9,0,3,0,3.2,0c0.1,0,0.1,0,0.2-0.1c0,0,0.1-0.1,0.1-0.2c0-0.1,0-0.2-0.1-0.2c-0.1,0-0.1-0.1-0.2-0.1
				c0,0,0,0,0,0c-0.8-0.2-1.3-0.4-1.7-0.9c-0.5-0.5-0.7-1.2-0.8-2.2c1.4,0.2,2.4,1,2.9,2.2l0,0c0,0.1,0.1,0.2,0.3,0.2
				c0.2,0,0.3-0.2,0.3-0.2c0-0.4,0-2.4,0-5.9l0,0C-55.2,369.8-55.3,369.7-55.4,369.7z"/>
		</g>
		<g>
			<g>
				<path id="c4P5Vu2zZy_1_" class="st3" d="M-55.4,369.7c-0.2,0-0.3,0.1-0.3,0.2c-0.3,1.1-0.8,2.1-3,2.3c0.1-0.9,0.3-1.6,0.8-2.1
					c0.4-0.4,0.9-0.7,1.8-0.9c0,0,0.1,0,0.2-0.1c0,0,0.1-0.1,0.1-0.2c0-0.1,0-0.2-0.1-0.2c-0.1-0.1-0.1-0.1-0.2-0.1
					c-0.2,0-1.3,0-3.2,0h-0.3c-1.7,0-2.7,0-2.9,0c0,0-0.1,0-0.2,0.1c0,0-0.1,0.1-0.1,0.2s0,0.2,0.1,0.2c0.1,0.1,0.2,0.1,0.2,0.1
					c0.8,0.2,1.4,0.5,1.8,0.9c0.4,0.5,0.7,1.2,0.8,2.1c-2.1-0.2-2.7-1.2-3-2.3c0-0.1-0.1-0.2-0.3-0.2c-0.2,0-0.2,0.1-0.3,0.2
					c0,0,0,0,0,0c0,3.6,0,5.5,0,5.9c0,0.1,0.1,0.3,0.3,0.2c0.2,0,0.3-0.1,0.3-0.2l0,0c0.5-1.2,1.6-2,2.9-2.2c-0.1,1-0.3,1.7-0.8,2.2
					c-0.4,0.4-0.9,0.7-1.8,0.9h0c0,0-0.1,0-0.2,0.1c0,0-0.1,0.1-0.1,0.2c0,0.1,0,0.1,0.1,0.2c0.1,0.1,0.1,0.1,0.2,0.1
					c0.2,0,1.2,0,2.9,0h0.3c1.9,0,3,0,3.2,0c0.1,0,0.1,0,0.2-0.1c0,0,0.1-0.1,0.1-0.2c0-0.1,0-0.2-0.1-0.2c-0.1,0-0.1-0.1-0.2-0.1
					c0,0,0,0,0,0c-0.8-0.2-1.3-0.4-1.7-0.9c-0.5-0.5-0.7-1.2-0.8-2.2c1.4,0.2,2.4,1,2.9,2.2l0,0c0,0.1,0.1,0.2,0.3,0.2
					c0.2,0,0.3-0.2,0.3-0.2c0-0.4,0-2.4,0-5.9l0,0C-55.2,369.8-55.3,369.7-55.4,369.7z"/>
			</g>
		</g>
	</g>
	<g>
		<g>
			<path id="bgjYNO530" class="st0" d="M-56.3,380.7c0-1.7-1.4-3.1-3.1-3.1h0c-1.7,0-3.1,1.4-3.1,3.1s1.4,3.1,3.1,3.1c0,0,0,0,0,0
				C-57.3,382.9-56.3,381.9-56.3,380.7z"/>
		</g>
		<g>
			<g>
				<path id="bgjYNO530_1_" class="st3" d="M-56.3,380.7c0-1.7-1.4-3.1-3.1-3.1h0c-1.7,0-3.1,1.4-3.1,3.1s1.4,3.1,3.1,3.1
					c0,0,0,0,0,0C-57.3,382.9-56.3,381.9-56.3,380.7z"/>
			</g>
		</g>
	</g>
	<g>
		<g>
			<path id="b1yS4E7mDq" class="st0" d="M-82.1,398.7c-0.2,0.2-0.5,0.3-0.8,0.3c-0.8,0-1.5-0.7-1.5-1.5c0-0.8,0.6-1.4,1.3-1.5
				c0-0.1-0.1-0.3-0.1-0.5c0-0.2-0.1-0.3-0.1-0.5c-0.2,0.1-0.4,0.1-0.6,0.1c-0.8,0-1.5-0.7-1.5-1.5c0-0.8,0.6-1.5,1.5-1.5
				c0.2,0,0.4,0,0.6,0.1c0-0.4,0.1-0.8,0.2-1.2c-0.2,0-0.3,0.1-0.5,0.1c-0.8,0-1.5-0.7-1.5-1.5c0-0.8,0.7-1.5,1.5-1.5
				c0.5,0,1,0.3,1.2,0.6c0.2-0.5,0.5-0.9,0.7-1.3c-0.1,0-0.3,0.1-0.4,0.1c-0.8,0-1.5-0.7-1.5-1.5s0.7-1.5,1.5-1.5
				c0.8,0,1.5,0.7,1.5,1.5c0,0,0,0,0,0.1c0.4-0.4,0.8-0.8,1.3-1.1c-0.7-0.1-1.2-0.7-1.2-1.5c0-0.8,0.7-1.5,1.5-1.5
				c0.8,0,1.5,0.7,1.5,1.5c0,0.1,0,0.3-0.1,0.4c0.5-0.2,1.1-0.4,1.6-0.6c-0.3-0.3-0.5-0.7-0.5-1.1c0-0.8,0.7-1.5,1.5-1.5
				c0.8,0,1.5,0.7,1.5,1.5c0,0.3-0.1,0.6-0.3,0.9c0.5,0,1.1,0,1.6,0.1c0,0,0,0,0,0c-0.1-0.2-0.2-0.5-0.2-0.8c0-0.8,0.7-1.5,1.5-1.5
				c0.8,0,1.5,0.7,1.5,1.5c0,0.5-0.3,1-0.7,1.2c0.1,0,0.1,0,0.2,0c0,0,0.5,0.1,1.2,0.3c-0.1-0.2-0.2-0.4-0.2-0.7
				c0-0.8,0.7-1.5,1.5-1.5c0.8,0,1.5,0.7,1.5,1.5c0,0.5-0.3,1-0.8,1.3c0.4,0.1,0.7,0.2,1,0.3c0,0,0.1,0,0.1,0c0-0.1,0-0.1,0-0.2
				c0-0.8,0.7-1.5,1.5-1.5c0.8,0,1.5,0.7,1.5,1.5c0,0.5-0.3,1-0.7,1.2c0.4,0.2,0.7,0.4,1.1,0.6c0.5,0.3,0.7,0.7,0.9,1
				c0.1,0.4,0.1,0.7,0.1,0.7c0,0.7,0,4.3,0,10.8h-1.7c-0.1-5.9-0.1-9.2-0.1-9.9c0,0,0-0.1,0-0.3c0-0.2-0.2-0.4-0.4-0.5
				c-2.7-1.3-3.4-1.6-5.3-2.1c-1.1-0.3-1.7-0.5-2.9-0.8c-1.2-0.2-1.7-0.3-2.2-0.3c-2.2,0-4.1,0.9-5.5,2.5c-1.4,1.5-2.2,3.6-2.2,6
				c0,0.2,0.1,1.6,0.4,2.3c0.3,0.9,0.9,2,0.9,2.2c0,0,0.3,0.7,0.9,1.9c-0.5,0.1-1.4,0.2-2,0.3C-81.6,399.8-81.9,399.2-82.1,398.7"/>
		</g>
		<g>
			<g>
				<path id="b1yS4E7mDq_1_" class="st3" d="M-82.1,398.7c-0.2,0.2-0.5,0.3-0.8,0.3c-0.8,0-1.5-0.7-1.5-1.5c0-0.8,0.6-1.4,1.3-1.5
					c0-0.1-0.1-0.3-0.1-0.5c0-0.2-0.1-0.3-0.1-0.5c-0.2,0.1-0.4,0.1-0.6,0.1c-0.8,0-1.5-0.7-1.5-1.5c0-0.8,0.6-1.5,1.5-1.5
					c0.2,0,0.4,0,0.6,0.1c0-0.4,0.1-0.8,0.2-1.2c-0.2,0-0.3,0.1-0.5,0.1c-0.8,0-1.5-0.7-1.5-1.5c0-0.8,0.7-1.5,1.5-1.5
					c0.5,0,1,0.3,1.2,0.6c0.2-0.5,0.5-0.9,0.7-1.3c-0.1,0-0.3,0.1-0.4,0.1c-0.8,0-1.5-0.7-1.5-1.5s0.7-1.5,1.5-1.5
					c0.8,0,1.5,0.7,1.5,1.5c0,0,0,0,0,0.1c0.4-0.4,0.8-0.8,1.3-1.1c-0.7-0.1-1.2-0.7-1.2-1.5c0-0.8,0.7-1.5,1.5-1.5
					c0.8,0,1.5,0.7,1.5,1.5c0,0.1,0,0.3-0.1,0.4c0.5-0.2,1.1-0.4,1.6-0.6c-0.3-0.3-0.5-0.7-0.5-1.1c0-0.8,0.7-1.5,1.5-1.5
					c0.8,0,1.5,0.7,1.5,1.5c0,0.3-0.1,0.6-0.3,0.9c0.5,0,1.1,0,1.6,0.1c0,0,0,0,0,0c-0.1-0.2-0.2-0.5-0.2-0.8c0-0.8,0.7-1.5,1.5-1.5
					c0.8,0,1.5,0.7,1.5,1.5c0,0.5-0.3,1-0.7,1.2c0.1,0,0.1,0,0.2,0c0,0,0.5,0.1,1.2,0.3c-0.1-0.2-0.2-0.4-0.2-0.7
					c0-0.8,0.7-1.5,1.5-1.5c0.8,0,1.5,0.7,1.5,1.5c0,0.5-0.3,1-0.8,1.3c0.4,0.1,0.7,0.2,1,0.3c0,0,0.1,0,0.1,0c0-0.1,0-0.1,0-0.2
					c0-0.8,0.7-1.5,1.5-1.5c0.8,0,1.5,0.7,1.5,1.5c0,0.5-0.3,1-0.7,1.2c0.4,0.2,0.7,0.4,1.1,0.6c0.5,0.3,0.7,0.7,0.9,1
					c0.1,0.4,0.1,0.7,0.1,0.7c0,0.7,0,4.3,0,10.8h-1.7c-0.1-5.9-0.1-9.2-0.1-9.9c0,0,0-0.1,0-0.3c0-0.2-0.2-0.4-0.4-0.5
					c-2.7-1.3-3.4-1.6-5.3-2.1c-1.1-0.3-1.7-0.5-2.9-0.8c-1.2-0.2-1.7-0.3-2.2-0.3c-2.2,0-4.1,0.9-5.5,2.5c-1.4,1.5-2.2,3.6-2.2,6
					c0,0.2,0.1,1.6,0.4,2.3c0.3,0.9,0.9,2,0.9,2.2c0,0,0.3,0.7,0.9,1.9c-0.5,0.1-1.4,0.2-2,0.3C-81.6,399.8-81.9,399.2-82.1,398.7"
					/>
			</g>
		</g>
	</g>
	<g>
		<g>
			<path id="eYCF5EV3J" class="st0" d="M-47,396l0.2,0.4l0.2,0.4l0.2,0.5l0.2,0.5l0.1,0.6l0.1,0.6l0,0.6l0,0.6l-0.1,0.4l-0.1,0.4
				l-0.2,0.4l-0.2,0.4l-0.2,0.5l-0.2,0.5l-0.2,0.5l-0.2,0.5l-0.1,0.5l-0.1,0.5l0.3-0.3l0.3-0.3l0.3-0.2l0.3-0.2l0.3-0.2l0.3-0.1
				l0.3-0.1l0.3,0l0.3,0.1l0.3,0.1l0.3,0.2l0.3,0.3l0.2,0.4l0.2,0.4l0.1,0.4l0,0.4l0,0.4l-0.1,0.4l-0.2,0.4l-0.2,0.4l-0.2,0.2
				l-0.2,0.2l-0.2,0.1l-0.2,0.1l-0.2,0.1L-45,408l-0.2,0.1l-0.2,0l-0.2,0l-0.2,0l0.1-0.1l0.1-0.1l0.1-0.1l0.1-0.1l0-0.1l0.1-0.1
				l0-0.1l0-0.1l0.1-0.1l0-0.1l0.1-0.2l0.1-0.2l0-0.2v-0.2l0-0.2l-0.1-0.2l-0.1-0.2l-0.1-0.1l-0.2-0.1l-0.2-0.1l-0.2,0h-0.2l-0.2,0
				l-0.2,0.1l-0.2,0.1l-0.2,0.1l-0.1,0.2l-0.1,0.2l-0.1,0.2l-0.1,0.2l0,0.1l0,0.1l0,0.1l0,0.1l0,0.1l0,0.1l0,0l0,0.1l0,0.1v0
				l0.1,0.4l0.1,0.4l0.2,0.3l0.2,0.3l0.2,0.2l0.3,0.2l0.3,0.2l0.3,0.2l0.3,0.1l0.4,0.1l0.4,0l0.4,0l0.4,0l0.4,0l0.4,0l0.4,0l0.4,0
				l0.4,0l0.4,0l0.4,0v0l0.5-0.1l0.4-0.2l0.4-0.2l0.4-0.3l0.4-0.3l0.3-0.4l0.3-0.4l0.2-0.4l0.2-0.5l0.1-0.5l-0.5,0l-0.5,0.1
				l-0.4,0.1l-0.4,0.2l-0.4,0.2l-0.4,0.3l-0.3,0.3l-0.3,0.4l-0.3,0.4l-0.2,0.4l0,0l0,0l0,0l0,0l0,0l0,0l0,0l0,0h0l-0.1,0l0,0l0,0
				l0,0l0,0l0,0l0,0l0,0l0,0v0l0,0v0l0.9-7.1l0,0l0,0l0,0l0,0l0,0l0,0l0,0l0,0l0,0h0h0.1l0,0l0.1,0l0,0l0,0l0,0l0,0l0,0l0,0l0,0v0
				l0.1,0.5l0.1,0.5l0.1,0.4l0.2,0.4l0.2,0.4l0.3,0.3l0.4,0.3l0.5,0.2l0.5,0.2l0.7,0.2l0-0.5l-0.1-0.5l-0.1-0.5l-0.2-0.4l-0.2-0.4
				l-0.3-0.4l-0.3-0.4l-0.4-0.3l-0.4-0.3l-0.4-0.2l0,0l0,0l0,0l0,0l0,0l0,0l0,0l0,0v0v-0.1l0,0l0,0l0,0l0,0l0,0l0,0l0,0l0,0h0h0
				l0.2,0l0.3,0l0.4,0l0.4,0l0.5,0.1l0.4,0.1l0.4,0.1l0.3,0l0.2,0l0.1,0l0.1,0l0.1,0l0.1,0l0.1,0l0.1,0l0.1,0l0.1,0l0.1,0.1l0.1,0
				l0,0.1l0,0.1l0,0.1l0,0.1l0,0.1l0,0.1l0,0.1l0,0.1v0.1l0,0.1l0,0.1l0,0.3l-0.1,0.6l-0.1,0.9l-0.2,1l-0.2,1.1l-0.1,1.1l-0.2,1
				l-0.1,0.9l-0.1,0.7l-0.1,0.4v0l0,0.1l0,0.1l0,0.1l0,0.4l0,0.1l0,0.1v0.1l0,0.1l0,0.1l0,0.1l0,0.1l0,0l0,0l0,0l0,0l0,0h0l0,0
				l-0.1,0.1l-0.2,0.1l-0.2,0.1l-0.2,0.1l-0.2,0.2l-0.2,0.2l-0.2,0.1l-0.2,0.1l-0.1,0.1l-0.1,0.1l0,0.1l0,0.1l0,0.1v0.1v0.1l0,0l0,0
				l0,0v0l1.3,1.9l0,0l0,0l0,0l0,0l0,0l0,0l0,0l0,0l0,0v0l0,0l0,0v0l0,0v0l0,0v0v0v0v0.1l0,0.1l0,0.1l0,0.1l0,0.1l0,0l0,0.1l0,0
				l-0.1,0.1l-0.1,0h-20.9h-0.5h-21l-0.1,0l0-0.1l0,0l0-0.1l0,0l0-0.1l0-0.1l0-0.1v-0.1l0-0.1v0v0l0,0v0v0l0,0v0l0,0l0,0l0,0l0,0v0
				l0,0l0,0l0,0l0,0l0,0l0,0l0,0l0,0l1.3-1.9v0l0,0l0,0l0,0v-0.1v-0.1l0-0.1l0-0.1l0-0.1l-0.1-0.1l-0.1-0.1l-0.2-0.1l-0.2-0.1
				l-0.2-0.2l-0.2-0.2l-0.2-0.1l-0.2-0.1l-0.2-0.1l-0.1-0.1l0,0h0l0,0l0,0l0,0l0,0l0,0l0-0.1l0-0.1l0-0.1l0-0.1l0-0.1l0-0.1l0-0.1
				l0-0.1l0-0.1l0-0.1l0-0.2l0-0.1v0l-0.1-0.4l-0.1-0.7l-0.1-0.9l-0.1-1l-0.2-1.1l-0.2-1.1l-0.1-1l-0.1-0.9l-0.1-0.6l-0.1-0.3l0-0.1
				l0-0.1v-0.1l0-0.1l0-0.1l0-0.1l0-0.1l0-0.1l0-0.1l0-0.1l0.1-0.1l0,0l0.1-0.1l0.1,0l0.1,0l0.1,0l0.1,0l0.1,0l0.1,0l0.1,0l0.1,0
				l0.2,0l0.3,0l0.4-0.1l0.5-0.1l0.4-0.1l0.4,0l0.4,0l0.3,0l0.2,0h0h0l0,0l0,0l0,0l0,0l0,0l0,0l0,0l0,0l0,0.1l0,0l0,0l0,0l0,0l0,0
				l0,0l0,0l0,0l0,0l-0.4,0.2l-0.4,0.3l-0.3,0.3l-0.3,0.4l-0.3,0.4l-0.2,0.4l-0.2,0.4l-0.1,0.5l-0.1,0.5l0,0.5l0.7-0.2l0.6-0.2
				l0.5-0.2l0.4-0.3l0.3-0.3l0.2-0.4l0.2-0.4l0.1-0.4l0.1-0.5l0.1-0.5v0l0,0l0,0l0,0l0,0l0,0l0,0l0,0l0.1,0l0.1,0h0h0l0,0l0,0l0,0
				l0,0l0,0l0,0l0,0l0,0l0,0l0.9,7.1l0,0v0l0,0l0,0l0,0l0,0l0,0l0,0l0,0l0,0l0,0l0,0h0l0,0l0,0l0,0l0,0l0,0l0,0l0,0l0,0l-0.2-0.4
				l-0.3-0.4l-0.3-0.4l-0.3-0.3l-0.4-0.3L-79,407l-0.4-0.2l-0.5-0.1l-0.5-0.1l-0.5,0l0.2,0.5l0.2,0.5l0.2,0.4l0.3,0.4l0.3,0.4
				l0.4,0.3l0.4,0.3l0.4,0.2l0.4,0.2l0.5,0.1l0,0l0.4,0l0.4,0l0.4,0l0.4,0l0.4,0l0.4,0l0.4,0l0.4,0l0.4,0l0.4,0l0.3-0.1l0.3-0.1
				l0.3-0.2l0.3-0.2l0.3-0.2l0.2-0.2l0.2-0.3l0.2-0.3l0.1-0.4l0.1-0.4v0l0-0.1l0-0.1l0,0l0-0.1l0-0.1l0-0.1l0-0.1l0-0.1l0-0.1
				l-0.1-0.2l-0.1-0.2L-72,406l-0.1-0.2l-0.2-0.1l-0.2-0.1l-0.2-0.1l-0.2,0H-73l-0.2,0l-0.2,0.1l-0.2,0.1l-0.1,0.1l-0.1,0.2
				l-0.1,0.2l0,0.2v0.2l0,0.2l0.1,0.2l0.1,0.2l0,0.1l0,0.1l0.1,0.1l0.1,0.1l0,0.1l0.1,0.1l0.1,0.1l0.1,0.1l0.1,0.1l0.1,0.1l-0.2,0
				l-0.2,0l-0.2,0l-0.2-0.1l-0.2-0.1l-0.2-0.1l-0.2-0.1l-0.2-0.1l-0.2-0.2l-0.2-0.2l-0.2-0.4l-0.2-0.4l-0.1-0.4l-0.1-0.4l0-0.4
				l0.1-0.4l0.2-0.4l0.2-0.4l0.3-0.3l0.4-0.2l0.3-0.1l0.3-0.1l0.3,0l0.3,0.1l0.3,0.1l0.3,0.2l0.3,0.2l0.3,0.2l0.3,0.3l0.3,0.3
				l-0.1-0.5l-0.1-0.5l-0.2-0.5l-0.2-0.5l-0.2-0.5l-0.2-0.5l-0.2-0.4l-0.2-0.4l-0.1-0.4l-0.1-0.4l0-0.6l0-0.6l0.1-0.6l0.1-0.6
				l0.2-0.5l0.2-0.5l0.2-0.4l0.2-0.4l0.3-0.3l0.3-0.2l0.3,0.2l0.3,0.2l0.3,0.3l0.3,0.4l0.2,0.4l0.2,0.5l0.2,0.5l0.1,0.5l0.1,0.6
				l0.1,0.6l0,0.4l-0.1,0.4l-0.1,0.5l-0.1,0.5l-0.1,0.5l-0.1,0.5l-0.1,0.5l-0.1,0.5L-70,404l0,0.5l0.2-0.4l0.2-0.3l0.3-0.3l0.3-0.2
				l0.3-0.2l0.3-0.2l0.3-0.1l0.3,0l0.3,0l0.3,0.1l0.4,0.2l0.3,0.3l0.3,0.3l0.2,0.4l0.1,0.4l0.1,0.4l0,0.4l-0.1,0.4l-0.1,0.4
				l-0.2,0.4l-0.1,0.2l-0.1,0.2l-0.1,0.2l-0.2,0.1l-0.2,0.1l-0.2,0.1l-0.2,0.1l-0.2,0.1l-0.2,0.1l-0.2,0l0.1-0.1l0-0.1l0.1-0.1
				l0-0.1l0-0.1l0-0.1l0-0.1l0-0.1l0-0.1l0-0.1l0-0.2l0-0.2v-0.2l0-0.2l-0.1-0.2l-0.1-0.2l-0.1-0.2l-0.1-0.1l-0.2-0.1l-0.2-0.1
				l-0.2,0l-0.2,0l-0.2,0.1l-0.2,0.1l-0.1,0.1l-0.1,0.2l-0.1,0.2l-0.1,0.2l-0.1,0.2l-0.1,0.2l0,0.1l0,0.1l0,0.1l0,0.1l0,0.1v0.1v0.1
				l0,0.1l0,0.1l0,0.1l0,0l0.2,0.4l0.2,0.3l0.2,0.3l0.2,0.2l0.3,0.2l0.3,0.2l0.3,0.2l0.3,0.1l0.3,0.1l0.3,0.1l0.4,0l0.4,0l0.4,0
				l0.4,0l0.4,0l0.4,0l0.4,0l0.4,0l0.4,0l0.4,0l0.1,0l0.5-0.1l0.4-0.2l0.4-0.2l0.3-0.3l0.3-0.3l0.3-0.4l0.2-0.4l0.2-0.5l0.1-0.5
				l0.1-0.6l-0.5,0.1l-0.4,0.1l-0.4,0.2l-0.4,0.2l-0.3,0.2l-0.3,0.3l-0.3,0.3l-0.3,0.3l-0.2,0.4l-0.2,0.4l0,0l0,0l0,0l0,0l0,0l0,0
				l0,0l-0.1,0l0,0l-0.1,0l-0.1,0l-0.1,0l-0.1,0l0,0l0,0l0,0l0,0l0,0l0,0v0v-6.6l0,0l0,0l0,0l0,0l0,0l0,0l0,0l0,0l0,0l0,0l0,0l0,0
				l0,0l0,0l0,0l0,0l0,0l0,0l0,0l0,0v0l0,0l0.1,0.4l0.1,0.4l0.2,0.3l0.2,0.3l0.3,0.3l0.3,0.3l0.4,0.2l0.5,0.2l0.6,0.1l0.7,0.1
				l-0.1-0.6l-0.1-0.6l-0.2-0.5l-0.2-0.4l-0.3-0.3l-0.3-0.3l-0.3-0.2l-0.4-0.2l-0.4-0.1l-0.5-0.1h0h0l0,0h0l0,0l0,0l0,0l0,0l0,0l0,0
				l0,0l0,0l0,0l0,0l0,0l0,0l0,0v0l0,0v0v0l0,0v0l0,0l0,0l0,0l0,0l0,0l0,0l0,0l0,0l0,0l0,0l0,0l0,0h0l0,0h0h0l0,0h0h7.2h0l0,0h0h0
				l0,0h0l0,0l0,0l0,0l0,0l0,0l0,0l0,0l0,0l0,0l0,0l0,0v0l0,0v0v0v0v0l0,0v0l0,0l0,0l0,0l0,0l0,0l0,0l0,0l0,0l0,0l0,0l0,0l0,0h0l0,0
				h0h0l-0.4,0.1l-0.4,0.1l-0.4,0.2l-0.3,0.2l-0.3,0.3l-0.3,0.3l-0.2,0.4l-0.2,0.5l-0.1,0.6l-0.1,0.6l0.7-0.1l0.6-0.1l0.5-0.2
				l0.4-0.2l0.3-0.3l0.3-0.3l0.2-0.3l0.2-0.3l0.1-0.4l0.1-0.4v0v0l0,0l0,0l0,0l0,0l0,0l0,0l0,0l0,0l0,0l0,0l0.1,0l0,0l0,0l0,0l0,0
				l0,0l0,0l0,0l0,0l0,0v6.6v0l0,0l0,0l0,0l0,0l0,0l-0.1,0l-0.1,0l0,0l-0.1,0l-0.1,0l-0.1,0l-0.1,0l0,0l0,0l0,0l0,0l0,0l0,0l0,0
				l-0.2-0.4l-0.2-0.4L-56,407l-0.3-0.3l-0.3-0.3l-0.4-0.2l-0.4-0.2l-0.4-0.2l-0.4-0.1l-0.4-0.1l0.1,0.6l0.1,0.5l0.2,0.5l0.2,0.4
				l0.3,0.4l0.3,0.3l0.3,0.3l0.4,0.2l0.4,0.2l0.5,0.1l0.1,0l0.4,0l0.4,0l0.4,0l0.4,0l0.4,0l0.4,0l0.4,0l0.4,0l0.4,0l0.4,0l0.3-0.1
				l0.3-0.1l0.3-0.1l0.3-0.2l0.3-0.2l0.3-0.2l0.2-0.2l0.2-0.3l0.2-0.3l0.2-0.4l0,0l0-0.1v-0.1l0-0.1v-0.1v-0.1l0-0.1l0-0.1l0-0.1
				l0-0.1l0-0.1l-0.1-0.2l-0.1-0.2l-0.1-0.2l-0.1-0.2l-0.1-0.2l-0.2-0.1l-0.2-0.1l-0.2-0.1l-0.2,0l-0.2,0l-0.2,0.1l-0.2,0.1
				l-0.1,0.1l-0.1,0.2l-0.1,0.2l0,0.2l0,0.2v0.2l0,0.2l0,0.2l0,0.1l0,0.1l0,0.1l0,0.1l0,0.1l0,0.1l0.1,0.1l0,0.1l0.1,0.1l0.1,0.1
				l-0.2,0l-0.2-0.1l-0.2-0.1l-0.2-0.1l-0.2-0.1l-0.2-0.1l-0.2-0.1l-0.1-0.2l-0.1-0.2l-0.1-0.2l-0.2-0.4l-0.1-0.4l-0.1-0.4l0-0.4
				l0.1-0.4l0.1-0.4l0.2-0.4l0.3-0.3l0.3-0.3l0.4-0.2l0.3-0.1l0.3,0l0.3,0l0.3,0.1l0.3,0.2l0.3,0.2l0.3,0.2l0.3,0.3l0.2,0.3l0.2,0.4
				l0-0.5l-0.1-0.5l-0.1-0.5l-0.1-0.5l-0.1-0.5l-0.1-0.5l-0.1-0.5l-0.1-0.5l-0.1-0.4l0-0.4l0-0.6l0.1-0.6l0.1-0.5l0.2-0.5l0.2-0.5
				l0.2-0.4l0.3-0.4l0.3-0.3l0.3-0.2l0.3-0.2l0.3,0.2L-47,396z M-59.5,410L-59.5,410L-59.5,410L-59.5,410L-59.5,410l-0.1,0l0,0l0,0
				l0,0l0,0l-1.7,1.7l0,0l0,0l0,0l0,0.1v0.1v0l0,0.1l0,0l0,0l0,0l1.7,1.7l0,0l0,0l0,0l0,0l0,0h0l0,0l0,0h0h0l0,0h0h0l0,0l0,0h0l0,0
				l0,0l0,0l0,0l0,0l1.7-1.7l0,0l0,0l0,0l0-0.1v0V412l0-0.1l0,0l0,0l0,0l-1.7-1.7l0,0l0,0l0,0l0,0l0,0l0,0l0,0H-59.5L-59.5,410
				L-59.5,410L-59.5,410L-59.5,410z M-51.1,411.1l-0.1,0l-0.1,0.1l-0.1,0.1l-0.1,0.1l-0.1,0.1l-0.1,0.1l0,0.1l0,0.1l0,0.7l0,0.1
				l0,0.1l0,0.1l0.1,0.1l0.1,0.1l0.1,0.1l0.1,0.1l0.1,0.1l0.1,0l0.1,0l4.7,0.2l0.1,0l0.1,0l0.1,0l0.1-0.1l0.1-0.1l0.1-0.1l0.1-0.1
				l0.1-0.1l0.1-0.1l0.1-0.2l0-0.7l0-0.1l0-0.1l-0.1-0.1l-0.1-0.1l-0.1-0.1l-0.1-0.1l-0.1-0.1l-0.1-0.1l-0.1,0l-0.1,0l-4.7-0.2H-51
				L-51.1,411.1z M-72.8,411.3l-0.1,0l-0.1,0.1l-0.1,0.1l-0.1,0.1l-0.1,0.1l-0.1,0.1l-0.1,0.1l0,0.1l0,0.1l0,0.7l0,0.1l0,0.1
				l0.1,0.1l0.1,0.1l0.1,0.1l0.1,0.1l0.1,0.1l0.1,0l0.1,0l0.1,0l4.7-0.2l0.1,0l0.1,0l0.1-0.1l0.1-0.1l0.1-0.1l0.1-0.1l0.1-0.1l0-0.1
				l0-0.1l0-0.1l0-0.7l0-0.1l0-0.1l-0.1-0.1l-0.1-0.1l-0.1-0.1l-0.1-0.1l-0.1-0.1l-0.1,0l-0.1,0H-68l-4.7,0.2L-72.8,411.3z
				 M-78.6,401.4L-78.6,401.4L-78.6,401.4L-78.6,401.4z M-40.2,401.4L-40.2,401.4L-40.2,401.4L-40.2,401.4z"/>
		</g>
		<g>
			<g>
				<path id="eYCF5EV3J_1_" class="st3" d="M-47,396l0.2,0.4l0.2,0.4l0.2,0.5l0.2,0.5l0.1,0.6l0.1,0.6l0,0.6l0,0.6l-0.1,0.4
					l-0.1,0.4l-0.2,0.4l-0.2,0.4l-0.2,0.5l-0.2,0.5l-0.2,0.5l-0.2,0.5l-0.1,0.5l-0.1,0.5l0.3-0.3l0.3-0.3l0.3-0.2l0.3-0.2l0.3-0.2
					l0.3-0.1l0.3-0.1l0.3,0l0.3,0.1l0.3,0.1l0.3,0.2l0.3,0.3l0.2,0.4l0.2,0.4l0.1,0.4l0,0.4l0,0.4l-0.1,0.4l-0.2,0.4l-0.2,0.4
					l-0.2,0.2l-0.2,0.2l-0.2,0.1l-0.2,0.1l-0.2,0.1L-45,408l-0.2,0.1l-0.2,0l-0.2,0l-0.2,0l0.1-0.1l0.1-0.1l0.1-0.1l0.1-0.1l0-0.1
					l0.1-0.1l0-0.1l0-0.1l0.1-0.1l0-0.1l0.1-0.2l0.1-0.2l0-0.2v-0.2l0-0.2l-0.1-0.2l-0.1-0.2l-0.1-0.1l-0.2-0.1l-0.2-0.1l-0.2,0
					h-0.2l-0.2,0l-0.2,0.1l-0.2,0.1l-0.2,0.1l-0.1,0.2l-0.1,0.2l-0.1,0.2l-0.1,0.2l0,0.1l0,0.1l0,0.1l0,0.1l0,0.1l0,0.1l0,0l0,0.1
					l0,0.1v0l0.1,0.4l0.1,0.4l0.2,0.3l0.2,0.3l0.2,0.2l0.3,0.2l0.3,0.2l0.3,0.2l0.3,0.1l0.4,0.1l0.4,0l0.4,0l0.4,0l0.4,0l0.4,0
					l0.4,0l0.4,0l0.4,0l0.4,0l0.4,0v0l0.5-0.1l0.4-0.2l0.4-0.2l0.4-0.3l0.4-0.3l0.3-0.4l0.3-0.4l0.2-0.4l0.2-0.5l0.1-0.5l-0.5,0
					l-0.5,0.1l-0.4,0.1l-0.4,0.2l-0.4,0.2l-0.4,0.3l-0.3,0.3l-0.3,0.4l-0.3,0.4l-0.2,0.4l0,0l0,0l0,0l0,0l0,0l0,0l0,0l0,0h0l-0.1,0
					l0,0l0,0l0,0l0,0l0,0l0,0l0,0l0,0v0l0,0v0l0.9-7.1l0,0l0,0l0,0l0,0l0,0l0,0l0,0l0,0l0,0h0h0.1l0,0l0.1,0l0,0l0,0l0,0l0,0l0,0
					l0,0l0,0v0l0.1,0.5l0.1,0.5l0.1,0.4l0.2,0.4l0.2,0.4l0.3,0.3l0.4,0.3l0.5,0.2l0.5,0.2l0.7,0.2l0-0.5l-0.1-0.5l-0.1-0.5l-0.2-0.4
					l-0.2-0.4l-0.3-0.4l-0.3-0.4l-0.4-0.3l-0.4-0.3l-0.4-0.2l0,0l0,0l0,0l0,0l0,0l0,0l0,0l0,0v0v-0.1l0,0l0,0l0,0l0,0l0,0l0,0l0,0
					l0,0h0h0l0.2,0l0.3,0l0.4,0l0.4,0l0.5,0.1l0.4,0.1l0.4,0.1l0.3,0l0.2,0l0.1,0l0.1,0l0.1,0l0.1,0l0.1,0l0.1,0l0.1,0l0.1,0
					l0.1,0.1l0.1,0l0,0.1l0,0.1l0,0.1l0,0.1l0,0.1l0,0.1l0,0.1l0,0.1v0.1l0,0.1l0,0.1l0,0.3l-0.1,0.6l-0.1,0.9l-0.2,1l-0.2,1.1
					l-0.1,1.1l-0.2,1l-0.1,0.9l-0.1,0.7l-0.1,0.4v0l0,0.1l0,0.1l0,0.1l0,0.4l0,0.1l0,0.1v0.1l0,0.1l0,0.1l0,0.1l0,0.1l0,0l0,0l0,0
					l0,0l0,0h0l0,0l-0.1,0.1l-0.2,0.1l-0.2,0.1l-0.2,0.1l-0.2,0.2l-0.2,0.2l-0.2,0.1l-0.2,0.1l-0.1,0.1l-0.1,0.1l0,0.1l0,0.1l0,0.1
					v0.1v0.1l0,0l0,0l0,0v0l1.3,1.9l0,0l0,0l0,0l0,0l0,0l0,0l0,0l0,0l0,0v0l0,0l0,0v0l0,0v0l0,0v0v0v0v0.1l0,0.1l0,0.1l0,0.1l0,0.1
					l0,0l0,0.1l0,0l-0.1,0.1l-0.1,0h-20.9h-0.5h-21l-0.1,0l0-0.1l0,0l0-0.1l0,0l0-0.1l0-0.1l0-0.1v-0.1l0-0.1v0v0l0,0v0v0l0,0v0l0,0
					l0,0l0,0l0,0v0l0,0l0,0l0,0l0,0l0,0l0,0l0,0l0,0l1.3-1.9v0l0,0l0,0l0,0v-0.1v-0.1l0-0.1l0-0.1l0-0.1l-0.1-0.1l-0.1-0.1l-0.2-0.1
					l-0.2-0.1l-0.2-0.2l-0.2-0.2l-0.2-0.1l-0.2-0.1l-0.2-0.1l-0.1-0.1l0,0h0l0,0l0,0l0,0l0,0l0,0l0-0.1l0-0.1l0-0.1l0-0.1l0-0.1
					l0-0.1l0-0.1l0-0.1l0-0.1l0-0.1l0-0.2l0-0.1v0l-0.1-0.4l-0.1-0.7l-0.1-0.9l-0.1-1l-0.2-1.1l-0.2-1.1l-0.1-1l-0.1-0.9l-0.1-0.6
					l-0.1-0.3l0-0.1l0-0.1v-0.1l0-0.1l0-0.1l0-0.1l0-0.1l0-0.1l0-0.1l0-0.1l0.1-0.1l0,0l0.1-0.1l0.1,0l0.1,0l0.1,0l0.1,0l0.1,0
					l0.1,0l0.1,0l0.1,0l0.2,0l0.3,0l0.4-0.1l0.5-0.1l0.4-0.1l0.4,0l0.4,0l0.3,0l0.2,0h0h0l0,0l0,0l0,0l0,0l0,0l0,0l0,0l0,0l0,0.1
					l0,0l0,0l0,0l0,0l0,0l0,0l0,0l0,0l0,0l-0.4,0.2l-0.4,0.3l-0.3,0.3l-0.3,0.4l-0.3,0.4l-0.2,0.4l-0.2,0.4l-0.1,0.5l-0.1,0.5l0,0.5
					l0.7-0.2l0.6-0.2l0.5-0.2l0.4-0.3l0.3-0.3l0.2-0.4l0.2-0.4l0.1-0.4l0.1-0.5l0.1-0.5v0l0,0l0,0l0,0l0,0l0,0l0,0l0,0l0.1,0l0.1,0
					h0h0l0,0l0,0l0,0l0,0l0,0l0,0l0,0l0,0l0,0l0.9,7.1l0,0v0l0,0l0,0l0,0l0,0l0,0l0,0l0,0l0,0l0,0l0,0h0l0,0l0,0l0,0l0,0l0,0l0,0
					l0,0l0,0l-0.2-0.4l-0.3-0.4l-0.3-0.4l-0.3-0.3l-0.4-0.3L-79,407l-0.4-0.2l-0.5-0.1l-0.5-0.1l-0.5,0l0.2,0.5l0.2,0.5l0.2,0.4
					l0.3,0.4l0.3,0.4l0.4,0.3l0.4,0.3l0.4,0.2l0.4,0.2l0.5,0.1l0,0l0.4,0l0.4,0l0.4,0l0.4,0l0.4,0l0.4,0l0.4,0l0.4,0l0.4,0l0.4,0
					l0.3-0.1l0.3-0.1l0.3-0.2l0.3-0.2l0.3-0.2l0.2-0.2l0.2-0.3l0.2-0.3l0.1-0.4l0.1-0.4v0l0-0.1l0-0.1l0,0l0-0.1l0-0.1l0-0.1l0-0.1
					l0-0.1l0-0.1l-0.1-0.2l-0.1-0.2L-72,406l-0.1-0.2l-0.2-0.1l-0.2-0.1l-0.2-0.1l-0.2,0H-73l-0.2,0l-0.2,0.1l-0.2,0.1l-0.1,0.1
					l-0.1,0.2l-0.1,0.2l0,0.2v0.2l0,0.2l0.1,0.2l0.1,0.2l0,0.1l0,0.1l0.1,0.1l0.1,0.1l0,0.1l0.1,0.1l0.1,0.1l0.1,0.1l0.1,0.1
					l0.1,0.1l-0.2,0l-0.2,0l-0.2,0l-0.2-0.1l-0.2-0.1l-0.2-0.1l-0.2-0.1l-0.2-0.1l-0.2-0.2l-0.2-0.2l-0.2-0.4l-0.2-0.4l-0.1-0.4
					l-0.1-0.4l0-0.4l0.1-0.4l0.2-0.4l0.2-0.4l0.3-0.3l0.4-0.2l0.3-0.1l0.3-0.1l0.3,0l0.3,0.1l0.3,0.1l0.3,0.2l0.3,0.2l0.3,0.2
					l0.3,0.3l0.3,0.3l-0.1-0.5l-0.1-0.5l-0.2-0.5l-0.2-0.5l-0.2-0.5l-0.2-0.5l-0.2-0.4l-0.2-0.4l-0.1-0.4l-0.1-0.4l0-0.6l0-0.6
					l0.1-0.6l0.1-0.6l0.2-0.5l0.2-0.5l0.2-0.4l0.2-0.4l0.3-0.3l0.3-0.2l0.3,0.2l0.3,0.2l0.3,0.3l0.3,0.4l0.2,0.4l0.2,0.5l0.2,0.5
					l0.1,0.5l0.1,0.6l0.1,0.6l0,0.4l-0.1,0.4l-0.1,0.5l-0.1,0.5l-0.1,0.5l-0.1,0.5l-0.1,0.5l-0.1,0.5L-70,404l0,0.5l0.2-0.4l0.2-0.3
					l0.3-0.3l0.3-0.2l0.3-0.2l0.3-0.2l0.3-0.1l0.3,0l0.3,0l0.3,0.1l0.4,0.2l0.3,0.3l0.3,0.3l0.2,0.4l0.1,0.4l0.1,0.4l0,0.4l-0.1,0.4
					l-0.1,0.4l-0.2,0.4l-0.1,0.2l-0.1,0.2l-0.1,0.2l-0.2,0.1l-0.2,0.1l-0.2,0.1l-0.2,0.1l-0.2,0.1l-0.2,0.1l-0.2,0l0.1-0.1l0-0.1
					l0.1-0.1l0-0.1l0-0.1l0-0.1l0-0.1l0-0.1l0-0.1l0-0.1l0-0.2l0-0.2v-0.2l0-0.2l-0.1-0.2l-0.1-0.2l-0.1-0.2l-0.1-0.1l-0.2-0.1
					l-0.2-0.1l-0.2,0l-0.2,0l-0.2,0.1l-0.2,0.1l-0.1,0.1l-0.1,0.2l-0.1,0.2l-0.1,0.2l-0.1,0.2l-0.1,0.2l0,0.1l0,0.1l0,0.1l0,0.1
					l0,0.1v0.1v0.1l0,0.1l0,0.1l0,0.1l0,0l0.2,0.4l0.2,0.3l0.2,0.3l0.2,0.2l0.3,0.2l0.3,0.2l0.3,0.2l0.3,0.1l0.3,0.1l0.3,0.1l0.4,0
					l0.4,0l0.4,0l0.4,0l0.4,0l0.4,0l0.4,0l0.4,0l0.4,0l0.4,0l0.1,0l0.5-0.1l0.4-0.2l0.4-0.2l0.3-0.3l0.3-0.3l0.3-0.4l0.2-0.4
					l0.2-0.5l0.1-0.5l0.1-0.6l-0.5,0.1l-0.4,0.1l-0.4,0.2l-0.4,0.2l-0.3,0.2l-0.3,0.3l-0.3,0.3l-0.3,0.3l-0.2,0.4l-0.2,0.4l0,0l0,0
					l0,0l0,0l0,0l0,0l0,0l-0.1,0l0,0l-0.1,0l-0.1,0l-0.1,0l-0.1,0l0,0l0,0l0,0l0,0l0,0l0,0v0v-6.6l0,0l0,0l0,0l0,0l0,0l0,0l0,0l0,0
					l0,0l0,0l0,0l0,0l0,0l0,0l0,0l0,0l0,0l0,0l0,0l0,0v0l0,0l0.1,0.4l0.1,0.4l0.2,0.3l0.2,0.3l0.3,0.3l0.3,0.3l0.4,0.2l0.5,0.2
					l0.6,0.1l0.7,0.1l-0.1-0.6l-0.1-0.6l-0.2-0.5l-0.2-0.4l-0.3-0.3l-0.3-0.3l-0.3-0.2l-0.4-0.2l-0.4-0.1l-0.5-0.1h0h0l0,0h0l0,0
					l0,0l0,0l0,0l0,0l0,0l0,0l0,0l0,0l0,0l0,0l0,0l0,0v0l0,0v0v0l0,0v0l0,0l0,0l0,0l0,0l0,0l0,0l0,0l0,0l0,0l0,0l0,0l0,0h0l0,0h0h0
					l0,0h0h7.2h0l0,0h0h0l0,0h0l0,0l0,0l0,0l0,0l0,0l0,0l0,0l0,0l0,0l0,0l0,0v0l0,0v0v0v0v0l0,0v0l0,0l0,0l0,0l0,0l0,0l0,0l0,0l0,0
					l0,0l0,0l0,0l0,0h0l0,0h0h0l-0.4,0.1l-0.4,0.1l-0.4,0.2l-0.3,0.2l-0.3,0.3l-0.3,0.3l-0.2,0.4l-0.2,0.5l-0.1,0.6l-0.1,0.6
					l0.7-0.1l0.6-0.1l0.5-0.2l0.4-0.2l0.3-0.3l0.3-0.3l0.2-0.3l0.2-0.3l0.1-0.4l0.1-0.4v0v0l0,0l0,0l0,0l0,0l0,0l0,0l0,0l0,0l0,0
					l0,0l0.1,0l0,0l0,0l0,0l0,0l0,0l0,0l0,0l0,0l0,0v6.6v0l0,0l0,0l0,0l0,0l0,0l-0.1,0l-0.1,0l0,0l-0.1,0l-0.1,0l-0.1,0l-0.1,0l0,0
					l0,0l0,0l0,0l0,0l0,0l0,0l-0.2-0.4l-0.2-0.4L-56,407l-0.3-0.3l-0.3-0.3l-0.4-0.2l-0.4-0.2l-0.4-0.2l-0.4-0.1l-0.4-0.1l0.1,0.6
					l0.1,0.5l0.2,0.5l0.2,0.4l0.3,0.4l0.3,0.3l0.3,0.3l0.4,0.2l0.4,0.2l0.5,0.1l0.1,0l0.4,0l0.4,0l0.4,0l0.4,0l0.4,0l0.4,0l0.4,0
					l0.4,0l0.4,0l0.4,0l0.3-0.1l0.3-0.1l0.3-0.1l0.3-0.2l0.3-0.2l0.3-0.2l0.2-0.2l0.2-0.3l0.2-0.3l0.2-0.4l0,0l0-0.1v-0.1l0-0.1
					v-0.1v-0.1l0-0.1l0-0.1l0-0.1l0-0.1l0-0.1l-0.1-0.2l-0.1-0.2l-0.1-0.2l-0.1-0.2l-0.1-0.2l-0.2-0.1l-0.2-0.1l-0.2-0.1l-0.2,0
					l-0.2,0l-0.2,0.1l-0.2,0.1l-0.1,0.1l-0.1,0.2l-0.1,0.2l0,0.2l0,0.2v0.2l0,0.2l0,0.2l0,0.1l0,0.1l0,0.1l0,0.1l0,0.1l0,0.1
					l0.1,0.1l0,0.1l0.1,0.1l0.1,0.1l-0.2,0l-0.2-0.1l-0.2-0.1l-0.2-0.1l-0.2-0.1l-0.2-0.1l-0.2-0.1l-0.1-0.2l-0.1-0.2l-0.1-0.2
					l-0.2-0.4l-0.1-0.4l-0.1-0.4l0-0.4l0.1-0.4l0.1-0.4l0.2-0.4l0.3-0.3l0.3-0.3l0.4-0.2l0.3-0.1l0.3,0l0.3,0l0.3,0.1l0.3,0.2
					l0.3,0.2l0.3,0.2l0.3,0.3l0.2,0.3l0.2,0.4l0-0.5l-0.1-0.5l-0.1-0.5l-0.1-0.5l-0.1-0.5l-0.1-0.5l-0.1-0.5l-0.1-0.5l-0.1-0.4
					l0-0.4l0-0.6l0.1-0.6l0.1-0.5l0.2-0.5l0.2-0.5l0.2-0.4l0.3-0.4l0.3-0.3l0.3-0.2l0.3-0.2l0.3,0.2L-47,396z M-59.5,410L-59.5,410
					L-59.5,410L-59.5,410L-59.5,410l-0.1,0l0,0l0,0l0,0l0,0l-1.7,1.7l0,0l0,0l0,0l0,0.1v0.1v0l0,0.1l0,0l0,0l0,0l1.7,1.7l0,0l0,0
					l0,0l0,0l0,0h0l0,0l0,0h0h0l0,0h0h0l0,0l0,0h0l0,0l0,0l0,0l0,0l0,0l1.7-1.7l0,0l0,0l0,0l0-0.1v0V412l0-0.1l0,0l0,0l0,0l-1.7-1.7
					l0,0l0,0l0,0l0,0l0,0l0,0l0,0H-59.5L-59.5,410L-59.5,410L-59.5,410L-59.5,410z M-51.1,411.1l-0.1,0l-0.1,0.1l-0.1,0.1l-0.1,0.1
					l-0.1,0.1l-0.1,0.1l0,0.1l0,0.1l0,0.7l0,0.1l0,0.1l0,0.1l0.1,0.1l0.1,0.1l0.1,0.1l0.1,0.1l0.1,0.1l0.1,0l0.1,0l4.7,0.2l0.1,0
					l0.1,0l0.1,0l0.1-0.1l0.1-0.1l0.1-0.1l0.1-0.1l0.1-0.1l0.1-0.1l0.1-0.2l0-0.7l0-0.1l0-0.1l-0.1-0.1l-0.1-0.1l-0.1-0.1l-0.1-0.1
					l-0.1-0.1l-0.1-0.1l-0.1,0l-0.1,0l-4.7-0.2H-51L-51.1,411.1z M-72.8,411.3l-0.1,0l-0.1,0.1l-0.1,0.1l-0.1,0.1l-0.1,0.1l-0.1,0.1
					l-0.1,0.1l0,0.1l0,0.1l0,0.7l0,0.1l0,0.1l0.1,0.1l0.1,0.1l0.1,0.1l0.1,0.1l0.1,0.1l0.1,0l0.1,0l0.1,0l4.7-0.2l0.1,0l0.1,0
					l0.1-0.1l0.1-0.1l0.1-0.1l0.1-0.1l0.1-0.1l0-0.1l0-0.1l0-0.1l0-0.7l0-0.1l0-0.1l-0.1-0.1l-0.1-0.1l-0.1-0.1l-0.1-0.1l-0.1-0.1
					l-0.1,0l-0.1,0H-68l-4.7,0.2L-72.8,411.3z M-78.6,401.4L-78.6,401.4L-78.6,401.4L-78.6,401.4z M-40.2,401.4L-40.2,401.4
					L-40.2,401.4L-40.2,401.4z"/>
			</g>
		</g>
	</g>
	<g>
		<g>
			<path id="a9YzCgnUl" class="st0" d="M-46.8,358.8l5.8,2.4l5.2,3.3l4.7,4l4,4.7l3.3,5.2l2.4,5.7l1.5,6.2l0.5,6.5l-0.5,6.5
				l-1.5,6.2l-2.4,5.8l-3.3,5.2l-4,4.7l-4.7,4l-5.2,3.3l-5.8,2.4l-6.1,1.5l-6.5,0.5l-6.5-0.5l-6.2-1.5l-5.8-2.4l-5.2-3.3l-4.7-4
				l-4-4.7l-3.3-5.2l-2.4-5.8l-1.5-6.2l-0.5-6.5l0.5-6.5l1.5-6.2l2.4-5.7l3.3-5.2l4-4.7l4.7-4l5.2-3.3l5.8-2.4l6.2-1.5l6.5-0.5
				l6.5,0.5L-46.8,358.8z M-70.6,363.2l-5.1,2.1l-4.6,2.9l-4.1,3.5l-3.5,4.1l-2.9,4.6l-2.2,5.1l-1.3,5.4l-0.5,5.7l0.5,5.7l1.3,5.4
				l2.2,5.1l2.9,4.6l3.5,4.1l4.1,3.5l4.6,2.9l5.1,2.2l5.4,1.3l5.7,0.5l5.7-0.5l5.4-1.3l5.1-2.2l4.6-2.9l4.1-3.5l3.5-4.1l2.9-4.6
				l2.2-5.1l1.3-5.4l0.5-5.7l-0.5-5.7l-1.3-5.4l-2.2-5.1l-2.9-4.6l-3.5-4.1l-4.1-3.5l-4.6-2.9l-5.1-2.1l-5.4-1.3l-5.7-0.5l-5.7,0.5
				L-70.6,363.2z"/>
		</g>
		<g>
			<g>
				<path id="a9YzCgnUl_1_" class="st3" d="M-46.8,358.8l5.8,2.4l5.2,3.3l4.7,4l4,4.7l3.3,5.2l2.4,5.7l1.5,6.2l0.5,6.5l-0.5,6.5
					l-1.5,6.2l-2.4,5.8l-3.3,5.2l-4,4.7l-4.7,4l-5.2,3.3l-5.8,2.4l-6.1,1.5l-6.5,0.5l-6.5-0.5l-6.2-1.5l-5.8-2.4l-5.2-3.3l-4.7-4
					l-4-4.7l-3.3-5.2l-2.4-5.8l-1.5-6.2l-0.5-6.5l0.5-6.5l1.5-6.2l2.4-5.7l3.3-5.2l4-4.7l4.7-4l5.2-3.3l5.8-2.4l6.2-1.5l6.5-0.5
					l6.5,0.5L-46.8,358.8z M-70.6,363.2l-5.1,2.1l-4.6,2.9l-4.1,3.5l-3.5,4.1l-2.9,4.6l-2.2,5.1l-1.3,5.4l-0.5,5.7l0.5,5.7l1.3,5.4
					l2.2,5.1l2.9,4.6l3.5,4.1l4.1,3.5l4.6,2.9l5.1,2.2l5.4,1.3l5.7,0.5l5.7-0.5l5.4-1.3l5.1-2.2l4.6-2.9l4.1-3.5l3.5-4.1l2.9-4.6
					l2.2-5.1l1.3-5.4l0.5-5.7l-0.5-5.7l-1.3-5.4l-2.2-5.1l-2.9-4.6l-3.5-4.1l-4.1-3.5l-4.6-2.9l-5.1-2.1l-5.4-1.3l-5.7-0.5l-5.7,0.5
					L-70.6,363.2z"/>
			</g>
		</g>
	</g>
</g>
</svg>
